<svg width="77" height="63" viewBox="0 0 77 63" fill="none" xmlns="http://www.w3.org/2000/svg">
<g id="refe arrow">
<path id="Ellipse 14" d="M76.5 31.5C76.5 48.5317 59.5853 62.5 38.5 62.5C17.4147 62.5 0.5 48.5317 0.5 31.5C0.5 14.4683 17.4147 0.5 38.5 0.5C59.5853 0.5 76.5 14.4683 76.5 31.5Z" fill="#121A1F" stroke="#83C033"/>
<path id="Arrow 1" d="M14.2929 31.2929C13.9024 31.6834 13.9024 32.3166 14.2929 32.7071L20.6569 39.0711C21.0474 39.4616 21.6805 39.4616 22.0711 39.0711C22.4616 38.6805 22.4616 38.0474 22.0711 37.6569L16.4142 32L22.0711 26.3431C22.4616 25.9526 22.4616 25.3195 22.0711 24.9289C21.6805 24.5384 21.0474 24.5384 20.6569 24.9289L14.2929 31.2929ZM62 31L15 31L15 33L62 33L62 31Z" fill="#83C033"/>
</g>
</svg>
