<svg width="77" height="63" viewBox="0 0 77 63" fill="none" xmlns="http://www.w3.org/2000/svg">
<g id="refe arrow">
<path id="Ellipse 14" d="M76.5 31.5C76.5 48.5317 59.5853 62.5 38.5 62.5C17.4147 62.5 0.5 48.5317 0.5 31.5C0.5 14.4683 17.4147 0.5 38.5 0.5C59.5853 0.5 76.5 14.4683 76.5 31.5Z" fill="#121A1F" stroke="#83C033"/>
<path id="Arrow 1" d="M60.7071 32.7071C61.0976 32.3166 61.0976 31.6834 60.7071 31.2929L54.3431 24.9289C53.9526 24.5384 53.3195 24.5384 52.9289 24.9289C52.5384 25.3195 52.5384 25.9526 52.9289 26.3431L58.5858 32L52.9289 37.6569C52.5384 38.0474 52.5384 38.6805 52.9289 39.0711C53.3195 39.4616 53.9526 39.4616 54.3431 39.0711L60.7071 32.7071ZM13 33H60V31H13V33Z" fill="#83C033"/>
</g>
</svg>
