<svg width="101" height="101" viewBox="0 0 101 101" fill="none" xmlns="http://www.w3.org/2000/svg">
<g id="drag_pan">
<mask id="mask0_180_16" style="mask-type:alpha" maskUnits="userSpaceOnUse" x="0" y="0" width="101" height="101">
<rect id="Bounding box" width="100.654" height="100.654" fill="#D9D9D9"/>
</mask>
<g mask="url(#mask0_180_16)">
<path id="drag_pan_2" d="M50.3268 92.2658L32.5027 74.4417L38.479 68.4654L46.1329 76.1193V54.5207H24.6392L32.293 62.0697L26.2119 68.1509L8.38782 50.3268L26.107 32.6076L32.0833 38.5839L24.5343 46.1329H46.1329V24.5343L38.479 32.1882L32.5027 26.2119L50.3268 8.38782L68.1509 26.2119L62.1745 32.1882L54.5207 24.5343V46.1329H76.0144L68.3605 38.5839L74.4417 32.5027L92.2658 50.3268L74.4417 68.1509L68.4654 62.1745L76.1193 54.5207H54.5207V76.0144L62.0697 68.3605L68.1509 74.4417L50.3268 92.2658Z" fill="#7C7C7C"/>
</g>
</g>
</svg>
