<svg width="38" height="38" viewBox="0 0 38 38" fill="none" xmlns="http://www.w3.org/2000/svg">
<g id="drag_pan">
<mask id="mask0_0_1" style="mask-type:alpha" maskUnits="userSpaceOnUse" x="0" y="0" width="38" height="38">
<rect id="Bounding box" width="37.64" height="37.64" fill="#D9D9D9"/>
</mask>
<g mask="url(#mask0_0_1)">
<path id="drag_pan_2" d="M18.8201 34.5034L12.1546 27.838L14.3895 25.6031L17.2517 28.4653V20.3884H9.21401L12.0762 23.2114L9.80214 25.4855L3.13672 18.8201L9.76293 12.1938L11.9978 14.4287L9.1748 17.2517H17.2517V9.1748L14.3895 12.037L12.1546 9.80214L18.8201 3.13672L25.4855 9.80214L23.2506 12.037L20.3884 9.1748V17.2517H28.4261L25.5639 14.4287L27.838 12.1546L34.5034 18.8201L27.838 25.4855L25.6031 23.2506L28.4653 20.3884H20.3884V28.4261L23.2114 25.5639L25.4855 27.838L18.8201 34.5034Z" fill="#7C7C7C"/>
</g>
</g>
</svg>
