<svg width="203" height="60" viewBox="0 0 203 60" fill="none" xmlns="http://www.w3.org/2000/svg">
<g id="Another logo">
<path id="Rectangle 42" d="M9.47328 27.8771C10.37 26.126 12.2103 25.0636 14.1751 25.1626L16.7052 25.29C20.4685 25.4795 22.6777 29.6057 20.7491 32.8428L10.8466 49.4641C9.006 52.5535 4.6036 52.7479 2.49792 49.8327L1.79268 48.8563C0.692495 47.3331 0.539103 45.3218 1.39559 43.6494L9.47328 27.8771Z" fill="url(#paint0_linear_0_1)"/>
<path id="Union" fill-rule="evenodd" clip-rule="evenodd" d="M27.655 12.0094C25.8121 8.77678 28.02 4.73561 31.7359 4.54003L34.0345 4.41906C36.0351 4.31376 37.9055 5.41282 38.7871 7.21183L48 26.0111C48 26.0111 48 26.0112 48 26.0112V26.0112C48 26.0112 48 26.0112 48 26.0112L48 26.0112C48 26.0112 48 26.0112 48 26.0112L34.3617 49.7106C32.5293 52.8948 28.0037 53.0817 25.9149 50.0596L25.3936 49.3054C24.3184 47.7498 24.2128 45.7208 25.1206 44.062L33.9711 27.8909C34.8045 26.3681 34.7884 24.5221 33.9287 23.0141L27.655 12.0094Z" fill="url(#paint1_linear_0_1)"/>
<path id="HP-PINNAT OY" d="M72.88 6.4H76.72C76.816 6.4 76.88 6.464 76.88 6.56V31.84C76.88 31.936 76.816 32 76.72 32H72.88C72.784 32 72.72 31.936 72.72 31.84V21.12H70.8V31.84C70.8 31.936 70.736 32 70.64 32H66.8C66.704 32 66.64 31.936 66.64 31.84V6.56C66.64 6.464 66.704 6.4 66.8 6.4H70.64C70.736 6.4 70.8 6.464 70.8 6.56V17.28H72.72V6.56C72.72 6.464 72.784 6.4 72.88 6.4ZM85.2113 6.4C87.7713 6.4 88.4113 8.32 88.4113 11.52V16.352C88.4113 19.552 87.7713 21.472 85.2113 21.472H82.3313V31.84C82.3313 31.936 82.2673 32 82.1713 32H78.3313C78.2353 32 78.1713 31.936 78.1713 31.84V6.56C78.1713 6.464 78.2353 6.4 78.3313 6.4H85.2113ZM84.2513 17.632V10.24H82.3313V17.632H84.2513ZM98.8225 21.28H89.8625C89.7665 21.28 89.7025 21.216 89.7025 21.12V17.28C89.7025 17.184 89.7665 17.12 89.8625 17.12H98.8225C98.9185 17.12 98.9825 17.184 98.9825 17.28V21.12C98.9825 21.216 98.9185 21.28 98.8225 21.28ZM107.305 6.4C109.865 6.4 110.505 8.32 110.505 11.52V16.352C110.505 19.552 109.865 21.472 107.305 21.472H104.425V31.84C104.425 31.936 104.361 32 104.265 32H100.425C100.329 32 100.265 31.936 100.265 31.84V6.56C100.265 6.464 100.329 6.4 100.425 6.4H107.305ZM106.345 17.632V10.24H104.425V17.632H106.345ZM115.796 32H111.956C111.86 32 111.796 31.936 111.796 31.84V6.56C111.796 6.464 111.86 6.4 111.956 6.4H115.796C115.892 6.4 115.956 6.464 115.956 6.56V31.84C115.956 31.936 115.892 32 115.796 32ZM121.234 32H117.394C117.298 32 117.234 31.936 117.234 31.84V6.56C117.234 6.464 117.298 6.4 117.394 6.4H121.234C121.33 6.4 121.394 6.464 121.426 6.56L123.634 17.28H124.274V6.56C124.274 6.464 124.338 6.4 124.434 6.4H128.594C128.69 6.4 128.754 6.464 128.754 6.56V31.84C128.754 31.936 128.69 32 128.594 32H124.882C124.786 32 124.722 31.936 124.69 31.84L122.034 19.84H121.394V31.84C121.394 31.936 121.33 32 121.234 32ZM134.046 32H130.206C130.11 32 130.046 31.936 130.046 31.84V6.56C130.046 6.464 130.11 6.4 130.206 6.4H134.046C134.142 6.4 134.206 6.464 134.238 6.56L136.446 17.28H137.086V6.56C137.086 6.464 137.15 6.4 137.246 6.4H141.406C141.502 6.4 141.566 6.464 141.566 6.56V31.84C141.566 31.936 141.502 32 141.406 32H137.694C137.598 32 137.534 31.936 137.502 31.84L134.846 19.84H134.206V31.84C134.206 31.936 134.142 32 134.046 32ZM152.331 6.56L153.739 31.84C153.739 31.968 153.675 32 153.579 32H149.739C149.643 32 149.579 31.968 149.579 31.84L149.259 25.44H147.019L146.699 31.84C146.699 31.968 146.635 32 146.539 32H142.699C142.603 32 142.539 31.968 142.539 31.84L143.947 6.56C143.947 6.432 144.011 6.4 144.107 6.4H152.171C152.267 6.4 152.331 6.432 152.331 6.56ZM147.819 10.24L147.243 21.6H149.035L148.459 10.24H147.819ZM153.894 6.4H162.854C162.95 6.4 163.014 6.464 163.014 6.56V10.08C163.014 10.176 162.95 10.24 162.854 10.24H160.454V31.84C160.454 31.936 160.39 32 160.294 32H156.454C156.358 32 156.294 31.936 156.294 31.84V10.24H153.894C153.798 10.24 153.734 10.176 153.734 10.08V6.56C153.734 6.464 153.798 6.4 153.894 6.4ZM174.524 6.4C177.084 6.4 177.724 8.32 177.724 11.52V26.88C177.724 30.08 177.084 32 174.524 32H170.684C168.124 32 167.484 30.08 167.484 26.88V11.52C167.484 8.32 168.124 6.4 170.684 6.4H174.524ZM173.564 28.16V10.24H171.644V28.16H173.564ZM182.011 24L177.883 6.592C177.851 6.464 177.947 6.4 178.043 6.4H181.819C181.915 6.4 181.979 6.464 182.011 6.56L183.707 15.104H184.347L186.043 6.56C186.075 6.464 186.139 6.4 186.235 6.4H190.011C190.107 6.4 190.203 6.464 190.171 6.592L186.043 24V31.84C186.043 31.936 185.979 32 185.883 32H182.171C182.075 32 182.011 31.936 182.011 31.84V24Z" fill="url(#paint2_linear_0_1)"/>
<path id="Kangasala" d="M66.4205 52L68.3523 40.3636H70.4602L69.5795 45.7102H69.7216L75.142 40.3636H77.7159L72.358 45.5852L75.8239 52H73.2898L70.6648 47.0114L69.108 48.5455L68.5284 52H66.4205ZM79.6463 52.1761C79.0933 52.1761 78.6122 52.0777 78.2031 51.8807C77.794 51.6799 77.4929 51.3845 77.2997 50.9943C77.1103 50.6042 77.063 50.1231 77.1577 49.5511C77.241 49.0587 77.4001 48.6515 77.6349 48.3295C77.8736 48.0076 78.1652 47.75 78.5099 47.5568C78.8584 47.3598 79.2372 47.2121 79.6463 47.1136C80.0592 47.0152 80.4796 46.9432 80.9077 46.8977C81.4304 46.8447 81.8527 46.7955 82.1747 46.75C82.5005 46.7045 82.7448 46.6364 82.9077 46.5455C83.0705 46.4508 83.169 46.3068 83.2031 46.1136V46.0795C83.2713 45.6515 83.2031 45.3201 82.9986 45.0852C82.794 44.8504 82.4531 44.733 81.9759 44.733C81.4759 44.733 81.0554 44.8428 80.7145 45.0625C80.3736 45.2822 80.1255 45.5417 79.9702 45.8409L78.1065 45.5682C78.3414 45.0379 78.6634 44.5947 79.0724 44.2386C79.4815 43.8788 79.9531 43.6098 80.4872 43.4318C81.0251 43.25 81.599 43.1591 82.2088 43.1591C82.6255 43.1591 83.0327 43.2083 83.4304 43.3068C83.8319 43.4053 84.1861 43.5682 84.4929 43.7955C84.8035 44.0189 85.0308 44.3239 85.1747 44.7102C85.3224 45.0966 85.3471 45.5795 85.2486 46.1591L84.277 52H82.2997L82.5043 50.8011H82.4361C82.2732 51.0436 82.0611 51.2708 81.7997 51.483C81.5384 51.6913 81.2277 51.8598 80.8679 51.9886C80.508 52.1136 80.1009 52.1761 79.6463 52.1761ZM80.4247 50.6648C80.8376 50.6648 81.2088 50.5833 81.5384 50.4205C81.8679 50.2538 82.1387 50.0341 82.3509 49.7614C82.563 49.4886 82.6955 49.1913 82.7486 48.8693L82.919 47.8409C82.8433 47.8939 82.7259 47.9432 82.5668 47.9886C82.4077 48.0341 82.2296 48.0739 82.0327 48.108C81.8395 48.142 81.6482 48.1723 81.4588 48.1989C81.2694 48.2254 81.1065 48.2481 80.9702 48.267C80.6558 48.3087 80.3679 48.3769 80.1065 48.4716C79.849 48.5663 79.6349 48.6989 79.4645 48.8693C79.2978 49.036 79.1937 49.2519 79.152 49.517C79.0914 49.892 79.1804 50.178 79.419 50.375C79.6577 50.5682 79.9929 50.6648 80.4247 50.6648ZM89.2543 46.8864L88.4134 52H86.3509L87.8054 43.2727H89.777L89.527 44.7557H89.6349C89.9077 44.267 90.2902 43.8788 90.7827 43.5909C91.2751 43.303 91.849 43.1591 92.5043 43.1591C93.099 43.1591 93.599 43.2879 94.0043 43.5455C94.4096 43.7992 94.6974 44.1723 94.8679 44.6648C95.0384 45.1534 95.0649 45.7462 94.9474 46.4432L94.0156 52H91.9588L92.8281 46.7614C92.9266 46.1818 92.8527 45.7273 92.6065 45.3977C92.3641 45.0644 91.974 44.8977 91.4361 44.8977C91.0762 44.8977 90.7448 44.9773 90.4418 45.1364C90.1387 45.2917 89.883 45.517 89.6747 45.8125C89.4702 46.108 89.33 46.4659 89.2543 46.8864ZM99.3452 55.4545C98.6027 55.4545 97.9834 55.3542 97.4872 55.1534C96.991 54.9564 96.6084 54.6913 96.3395 54.358C96.0705 54.0246 95.9039 53.6553 95.8395 53.25L97.7713 52.8011C97.8281 52.9716 97.919 53.1402 98.044 53.3068C98.1728 53.4773 98.3622 53.6174 98.6122 53.7273C98.8622 53.8409 99.1955 53.8977 99.6122 53.8977C100.196 53.8977 100.705 53.7557 101.141 53.4716C101.576 53.1875 101.845 52.7254 101.947 52.0852L102.209 50.4318H102.107C101.97 50.6439 101.783 50.8617 101.544 51.0852C101.309 51.3087 101.012 51.4962 100.652 51.6477C100.296 51.7992 99.8679 51.875 99.3679 51.875C98.6974 51.875 98.116 51.7178 97.6236 51.4034C97.1312 51.0852 96.777 50.6117 96.5611 49.983C96.349 49.3504 96.3224 48.5587 96.4815 47.608C96.6368 46.6496 96.9285 45.8409 97.3565 45.1818C97.7884 44.5189 98.3054 44.017 98.9077 43.6761C99.5099 43.3314 100.146 43.1591 100.817 43.1591C101.328 43.1591 101.735 43.2462 102.038 43.4205C102.341 43.5909 102.571 43.7973 102.726 44.0398C102.881 44.2784 102.995 44.5038 103.067 44.7159H103.175L103.413 43.2727H105.442L103.976 52.142C103.855 52.8883 103.576 53.5057 103.141 53.9943C102.705 54.4867 102.158 54.8523 101.499 55.0909C100.843 55.3333 100.125 55.4545 99.3452 55.4545ZM100.186 50.2614C100.622 50.2614 101.012 50.1553 101.357 49.9432C101.701 49.7311 101.989 49.4261 102.22 49.0284C102.451 48.6307 102.612 48.1534 102.703 47.5966C102.794 47.0473 102.79 46.5663 102.692 46.1534C102.597 45.7405 102.413 45.4205 102.141 45.1932C101.868 44.9621 101.512 44.8466 101.072 44.8466C100.614 44.8466 100.213 44.9659 99.8679 45.2045C99.527 45.4432 99.2467 45.7708 99.027 46.1875C98.8111 46.6004 98.6596 47.0701 98.5724 47.5966C98.4891 48.1307 98.4891 48.5985 98.5724 49C98.6596 49.3977 98.8357 49.7083 99.1009 49.9318C99.3698 50.1515 99.7315 50.2614 100.186 50.2614ZM108.584 52.1761C108.031 52.1761 107.55 52.0777 107.141 51.8807C106.732 51.6799 106.43 51.3845 106.237 50.9943C106.048 50.6042 106 50.1231 106.095 49.5511C106.179 49.0587 106.338 48.6515 106.572 48.3295C106.811 48.0076 107.103 47.75 107.447 47.5568C107.796 47.3598 108.175 47.2121 108.584 47.1136C108.997 47.0152 109.417 46.9432 109.845 46.8977C110.368 46.8447 110.79 46.7955 111.112 46.75C111.438 46.7045 111.682 46.6364 111.845 46.5455C112.008 46.4508 112.107 46.3068 112.141 46.1136V46.0795C112.209 45.6515 112.141 45.3201 111.936 45.0852C111.732 44.8504 111.391 44.733 110.913 44.733C110.413 44.733 109.993 44.8428 109.652 45.0625C109.311 45.2822 109.063 45.5417 108.908 45.8409L107.044 45.5682C107.279 45.0379 107.601 44.5947 108.01 44.2386C108.419 43.8788 108.891 43.6098 109.425 43.4318C109.963 43.25 110.536 43.1591 111.146 43.1591C111.563 43.1591 111.97 43.2083 112.368 43.3068C112.769 43.4053 113.124 43.5682 113.43 43.7955C113.741 44.0189 113.968 44.3239 114.112 44.7102C114.26 45.0966 114.285 45.5795 114.186 46.1591L113.214 52H111.237L111.442 50.8011H111.374C111.211 51.0436 110.999 51.2708 110.737 51.483C110.476 51.6913 110.165 51.8598 109.805 51.9886C109.446 52.1136 109.038 52.1761 108.584 52.1761ZM109.362 50.6648C109.775 50.6648 110.146 50.5833 110.476 50.4205C110.805 50.2538 111.076 50.0341 111.288 49.7614C111.5 49.4886 111.633 49.1913 111.686 48.8693L111.857 47.8409C111.781 47.8939 111.663 47.9432 111.504 47.9886C111.345 48.0341 111.167 48.0739 110.97 48.108C110.777 48.142 110.586 48.1723 110.396 48.1989C110.207 48.2254 110.044 48.2481 109.908 48.267C109.593 48.3087 109.305 48.3769 109.044 48.4716C108.786 48.5663 108.572 48.6989 108.402 48.8693C108.235 49.036 108.131 49.2519 108.089 49.517C108.029 49.892 108.118 50.178 108.357 50.375C108.595 50.5682 108.93 50.6648 109.362 50.6648ZM123.243 45.5795L121.351 45.7841C121.332 45.5909 121.273 45.411 121.175 45.2443C121.076 45.0777 120.929 44.9451 120.732 44.8466C120.538 44.7443 120.288 44.6932 119.982 44.6932C119.535 44.6932 119.143 44.7936 118.805 44.9943C118.468 45.1951 118.277 45.4527 118.232 45.767C118.19 46.0019 118.247 46.1932 118.402 46.3409C118.557 46.4886 118.845 46.6136 119.266 46.7159L120.709 47.0341C121.504 47.2121 122.076 47.5 122.425 47.8977C122.777 48.2955 122.9 48.8163 122.794 49.4602C122.703 49.9981 122.468 50.4716 122.089 50.8807C121.711 51.286 121.226 51.6023 120.635 51.8295C120.048 52.0568 119.396 52.1705 118.68 52.1705C117.593 52.1705 116.756 51.9451 116.169 51.4943C115.586 51.0398 115.296 50.4148 115.3 49.6193L117.322 49.4261C117.345 49.8201 117.483 50.1174 117.737 50.3182C117.991 50.5152 118.343 50.6155 118.794 50.6193C119.302 50.6231 119.73 50.517 120.078 50.3011C120.43 50.0814 120.629 49.8144 120.675 49.5C120.713 49.2652 120.654 49.0739 120.499 48.9261C120.347 48.7784 120.076 48.661 119.686 48.5739L118.254 48.2614C117.444 48.0833 116.866 47.7822 116.521 47.358C116.18 46.9299 116.065 46.3902 116.175 45.7386C116.266 45.2083 116.487 44.7519 116.839 44.3693C117.196 43.983 117.652 43.6856 118.209 43.4773C118.766 43.2652 119.389 43.1591 120.078 43.1591C121.116 43.1591 121.898 43.3769 122.425 43.8125C122.951 44.2481 123.224 44.8371 123.243 45.5795ZM126.553 52.1761C126 52.1761 125.518 52.0777 125.109 51.8807C124.7 51.6799 124.399 51.3845 124.206 50.9943C124.017 50.6042 123.969 50.1231 124.064 49.5511C124.147 49.0587 124.306 48.6515 124.541 48.3295C124.78 48.0076 125.071 47.75 125.416 47.5568C125.765 47.3598 126.143 47.2121 126.553 47.1136C126.965 47.0152 127.386 46.9432 127.814 46.8977C128.337 46.8447 128.759 46.7955 129.081 46.75C129.407 46.7045 129.651 46.6364 129.814 46.5455C129.977 46.4508 130.075 46.3068 130.109 46.1136V46.0795C130.178 45.6515 130.109 45.3201 129.905 45.0852C129.7 44.8504 129.359 44.733 128.882 44.733C128.382 44.733 127.962 44.8428 127.621 45.0625C127.28 45.2822 127.032 45.5417 126.876 45.8409L125.013 45.5682C125.248 45.0379 125.57 44.5947 125.979 44.2386C126.388 43.8788 126.859 43.6098 127.393 43.4318C127.931 43.25 128.505 43.1591 129.115 43.1591C129.532 43.1591 129.939 43.2083 130.337 43.3068C130.738 43.4053 131.092 43.5682 131.399 43.7955C131.71 44.0189 131.937 44.3239 132.081 44.7102C132.229 45.0966 132.253 45.5795 132.155 46.1591L131.183 52H129.206L129.411 50.8011H129.342C129.179 51.0436 128.967 51.2708 128.706 51.483C128.445 51.6913 128.134 51.8598 127.774 51.9886C127.414 52.1136 127.007 52.1761 126.553 52.1761ZM127.331 50.6648C127.744 50.6648 128.115 50.5833 128.445 50.4205C128.774 50.2538 129.045 50.0341 129.257 49.7614C129.469 49.4886 129.602 49.1913 129.655 48.8693L129.825 47.8409C129.75 47.8939 129.632 47.9432 129.473 47.9886C129.314 48.0341 129.136 48.0739 128.939 48.108C128.746 48.142 128.554 48.1723 128.365 48.1989C128.176 48.2254 128.013 48.2481 127.876 48.267C127.562 48.3087 127.274 48.3769 127.013 48.4716C126.755 48.5663 126.541 48.6989 126.371 48.8693C126.204 49.036 126.1 49.2519 126.058 49.517C125.998 49.892 126.087 50.178 126.325 50.375C126.564 50.5682 126.899 50.6648 127.331 50.6648ZM137.24 40.3636L135.308 52H133.251L135.183 40.3636H137.24ZM139.912 52.1761C139.359 52.1761 138.878 52.0777 138.469 51.8807C138.06 51.6799 137.759 51.3845 137.565 50.9943C137.376 50.6042 137.329 50.1231 137.423 49.5511C137.507 49.0587 137.666 48.6515 137.901 48.3295C138.139 48.0076 138.431 47.75 138.776 47.5568C139.124 47.3598 139.503 47.2121 139.912 47.1136C140.325 47.0152 140.745 46.9432 141.173 46.8977C141.696 46.8447 142.118 46.7955 142.44 46.75C142.766 46.7045 143.01 46.6364 143.173 46.5455C143.336 46.4508 143.435 46.3068 143.469 46.1136V46.0795C143.537 45.6515 143.469 45.3201 143.264 45.0852C143.06 44.8504 142.719 44.733 142.241 44.733C141.741 44.733 141.321 44.8428 140.98 45.0625C140.639 45.2822 140.391 45.5417 140.236 45.8409L138.372 45.5682C138.607 45.0379 138.929 44.5947 139.338 44.2386C139.747 43.8788 140.219 43.6098 140.753 43.4318C141.291 43.25 141.865 43.1591 142.474 43.1591C142.891 43.1591 143.298 43.2083 143.696 43.3068C144.098 43.4053 144.452 43.5682 144.759 43.7955C145.069 44.0189 145.296 44.3239 145.44 44.7102C145.588 45.0966 145.613 45.5795 145.514 46.1591L144.543 52H142.565L142.77 50.8011H142.702C142.539 51.0436 142.327 51.2708 142.065 51.483C141.804 51.6913 141.493 51.8598 141.134 51.9886C140.774 52.1136 140.366 52.1761 139.912 52.1761ZM140.69 50.6648C141.103 50.6648 141.474 50.5833 141.804 50.4205C142.134 50.2538 142.404 50.0341 142.616 49.7614C142.829 49.4886 142.961 49.1913 143.014 48.8693L143.185 47.8409C143.109 47.8939 142.991 47.9432 142.832 47.9886C142.673 48.0341 142.495 48.0739 142.298 48.108C142.105 48.142 141.914 48.1723 141.724 48.1989C141.535 48.2254 141.372 48.2481 141.236 48.267C140.921 48.3087 140.634 48.3769 140.372 48.4716C140.115 48.5663 139.901 48.6989 139.73 48.8693C139.563 49.036 139.459 49.2519 139.418 49.517C139.357 49.892 139.446 50.178 139.685 50.375C139.923 50.5682 140.259 50.6648 140.69 50.6648Z" fill="#83C033"/>
</g>
<defs>
<linearGradient id="paint0_linear_0_1" x1="12.5" y1="25" x2="12.5" y2="56" gradientUnits="userSpaceOnUse">
<stop offset="0.23" stop-color="#83C033"/>
<stop offset="1" stop-color="#3D5A18"/>
</linearGradient>
<linearGradient id="paint1_linear_0_1" x1="36.2534" y1="4.41211" x2="36.2534" y2="52.2168" gradientUnits="userSpaceOnUse">
<stop offset="0.56" stop-color="#83C033"/>
<stop offset="1" stop-color="#3D5A18"/>
</linearGradient>
<linearGradient id="paint2_linear_0_1" x1="66" y1="19" x2="203" y2="19" gradientUnits="userSpaceOnUse">
<stop stop-color="#929292"/>
<stop offset="0.34" stop-color="#F8F8F8"/>
<stop offset="1" stop-color="white"/>
</linearGradient>
</defs>
</svg>
