<svg width="115" height="76" viewBox="0 0 115 76" fill="none" xmlns="http://www.w3.org/2000/svg">
<path d="M1.36 23.108H10.72C10.72 24.332 11.872 25.16 17.812 25.16C23.356 25.16 24.184 24.8 24.184 23.864C24.184 22.784 23.356 22.64 17.452 22.46C6.076 22.1 1.72 20.228 1.72 14.36C1.72 8.816 7.156 6.44 17.092 6.44C26.92 6.44 32.464 8.816 32.464 15.26H23.104C23.104 13.928 20.944 13.64 16.372 13.64C11.98 13.64 11.08 13.856 11.08 14.828C11.08 15.8 11.98 15.764 17.452 15.98C27.388 16.376 33.544 17.06 33.544 23.648C33.544 30.596 27.784 32.36 17.452 32.36C7.12 32.36 1.36 30.596 1.36 23.108ZM34.2663 23.108H43.6263C43.6263 24.332 44.7783 25.16 50.7183 25.16C56.2623 25.16 57.0903 24.8 57.0903 23.864C57.0903 22.784 56.2623 22.64 50.3583 22.46C38.9823 22.1 34.6263 20.228 34.6263 14.36C34.6263 8.816 40.0623 6.44 49.9983 6.44C59.8263 6.44 65.3703 8.816 65.3703 15.26H56.0103C56.0103 13.928 53.8503 13.64 49.2783 13.64C44.8863 13.64 43.9863 13.856 43.9863 14.828C43.9863 15.8 44.8863 15.764 50.3583 15.98C60.2943 16.376 66.4503 17.06 66.4503 23.648C66.4503 30.596 60.6903 32.36 50.3583 32.36C40.0263 32.36 34.2663 30.596 34.2663 23.108Z" fill="#F8F6FD"/>
<path d="M1.33 43.59H3.13C3.13 44.33 3.73 44.67 6.01 44.67C7.9 44.67 8.47 44.46 8.47 43.91C8.47 43.33 8.07 43.23 5.8 43.12C2.75 42.98 1.54 42.5 1.54 40.93C1.54 39.39 3.11 38.9 5.73 38.9C8.37 38.9 9.97 39.56 9.97 41.29H8.17C8.17 40.52 7.4 40.33 5.53 40.33C3.76 40.33 3.34 40.5 3.34 41.02C3.34 41.56 3.76 41.66 5.8 41.78C8.56 41.93 10.27 42.08 10.27 43.85C10.27 45.72 8.5 46.1 5.91 46.1C3.04 46.1 1.33 45.61 1.33 43.59ZM10.8222 43.06C10.8222 40.89 12.4622 40.01 14.9022 40.01C17.1022 40.01 18.6522 40.73 18.9322 42.46H17.1822C16.9522 41.7 16.1422 41.44 14.9022 41.44C13.4322 41.44 12.5322 41.83 12.5322 43.06C12.5322 44.28 13.4322 44.67 14.9022 44.67C16.1422 44.67 16.9522 44.41 17.1822 43.65H18.9322C18.6522 45.38 17.1022 46.1 14.9022 46.1C12.4622 46.1 10.8222 45.22 10.8222 43.06ZM24.7243 40.01C26.2943 40.01 27.7643 40.57 27.7843 42.74L27.7643 46H26.0443V43.39C26.0443 42.14 25.6243 41.49 24.2143 41.49C23.0643 41.49 21.8243 42.08 21.2943 42.7V46H19.5843V38H21.2943V41.14C22.1343 40.48 23.2943 40.01 24.7243 40.01ZM32.4808 40.01C34.9408 40.01 36.3408 40.8 36.3608 43.03V46H34.6408V45.27C33.6008 45.78 32.4508 46.1 31.0608 46.1C29.4108 46.1 28.3808 45.57 28.3808 44.24C28.3808 42.71 30.0608 42.23 31.9308 42.23C32.9408 42.23 33.8708 42.39 34.6408 42.65C34.6408 41.53 33.2008 41.44 32.4008 41.44C31.6308 41.44 30.6908 41.51 29.4808 41.87L28.8708 40.62C30.0708 40.23 31.2508 40.01 32.4808 40.01ZM34.6408 44.17V43.71C34.0408 43.52 33.2308 43.35 32.1408 43.35C30.8608 43.35 30.0908 43.57 30.0908 44.17C30.0908 44.79 30.6608 44.84 31.5508 44.84C32.4808 44.84 33.7608 44.55 34.6408 44.17ZM37.1624 38H38.8724V46H37.1624V38ZM48.5922 40.11L44.7722 42.52L48.5922 46H46.2122L43.3922 43.43L41.3822 44.64V46H39.6722V38H41.3822V42.76L45.6722 40.11H48.5922ZM51.9702 44.71C53.1502 44.71 53.8702 44.49 54.3002 43.89H56.0002C55.6102 45.39 54.1502 46.1 51.9702 46.1C49.7302 46.1 47.9902 45.22 47.9902 43.06C47.9902 40.89 49.6802 40.01 52.0702 40.01C54.3102 40.01 56.1002 40.78 56.1002 43.46H49.7402C49.9302 44.4 50.8302 44.71 51.9702 44.71ZM52.0602 41.31C50.8902 41.31 50.0702 41.54 49.8002 42.37H54.2702C53.9802 41.54 53.1402 41.31 52.0602 41.31ZM68.83 40.51H63.23V42.29H68.23V43.81H63.23V46H61.43V39H68.83V40.51ZM73.0663 46.1C70.6263 46.1 68.9862 45.22 68.9862 43.06C68.9862 40.89 70.6263 40.01 73.0663 40.01C75.4963 40.01 77.1463 40.89 77.1463 43.06C77.1463 45.22 75.4963 46.1 73.0663 46.1ZM73.0663 44.67C74.6463 44.67 75.4263 44.28 75.4263 43.06C75.4263 41.83 74.6463 41.44 73.0663 41.44C71.4763 41.44 70.6963 41.83 70.6963 43.06C70.6963 44.28 71.4763 44.67 73.0663 44.67ZM81.7186 46.1C79.2786 46.1 77.6386 45.22 77.6386 43.06C77.6386 40.89 79.2786 40.01 81.7186 40.01C84.1486 40.01 85.7986 40.89 85.7986 43.06C85.7986 45.22 84.1486 46.1 81.7186 46.1ZM81.7186 44.67C83.2986 44.67 84.0786 44.28 84.0786 43.06C84.0786 41.83 83.2986 41.44 81.7186 41.44C80.1286 41.44 79.3486 41.83 79.3486 43.06C79.3486 44.28 80.1286 44.67 81.7186 44.67ZM91.9798 41.54H89.1898V43.24C89.1898 44.38 89.4098 44.67 90.4498 44.67C90.9898 44.67 91.2898 44.67 91.9798 44.57V45.95C91.4098 46.05 90.7598 46.1 89.9698 46.1C88.4498 46.1 87.4698 45.53 87.4698 44.23V41.54H85.9198V40.11H87.4698V38.89L89.1898 38.4V40.11H91.9798V41.54ZM97.33 40.01C99.22 40.01 100.84 40.81 100.84 43.06C100.84 45.31 99.22 46.1 97.33 46.1C96.06 46.1 95.03 45.75 94.39 45.08V46H92.68V38H94.39V41.03C95.03 40.36 96.06 40.01 97.33 40.01ZM96.76 44.67C98.29 44.67 99.12 44.22 99.12 43.06C99.12 41.89 98.29 41.44 96.76 41.44C95.23 41.44 94.39 41.89 94.39 43.06C94.39 44.22 95.23 44.67 96.76 44.67ZM105.332 40.01C107.792 40.01 109.192 40.8 109.212 43.03V46H107.492V45.27C106.452 45.78 105.302 46.1 103.912 46.1C102.262 46.1 101.232 45.57 101.232 44.24C101.232 42.71 102.912 42.23 104.782 42.23C105.792 42.23 106.722 42.39 107.492 42.65C107.492 41.53 106.052 41.44 105.252 41.44C104.482 41.44 103.542 41.51 102.332 41.87L101.722 40.62C102.922 40.23 104.102 40.01 105.332 40.01ZM107.492 44.17V43.71C106.892 43.52 106.082 43.35 104.992 43.35C103.712 43.35 102.942 43.57 102.942 44.17C102.942 44.79 103.512 44.84 104.402 44.84C105.332 44.84 106.612 44.55 107.492 44.17ZM110.014 38H111.724V46H110.014V38ZM112.524 38H114.234V46H112.524V38Z" fill="#C2FF3F"/>
<g filter="url(#filter0_d_4_20)">
<line x1="-0.242536" y1="26.0299" x2="63.7575" y2="10.0299" stroke="#151518" stroke-width="2"/>
</g>
<defs>
<filter id="filter0_d_4_20" x="-50.485" y="-36.9403" width="164.485" height="117.94" filterUnits="userSpaceOnUse" color-interpolation-filters="sRGB">
<feFlood flood-opacity="0" result="BackgroundImageFix"/>
<feColorMatrix in="SourceAlpha" type="matrix" values="0 0 0 0 0 0 0 0 0 0 0 0 0 0 0 0 0 0 127 0" result="hardAlpha"/>
<feOffset dy="4"/>
<feGaussianBlur stdDeviation="25"/>
<feComposite in2="hardAlpha" operator="out"/>
<feColorMatrix type="matrix" values="0 0 0 0 0.57 0 0 0 0 0.57 0 0 0 0 0.57 0 0 0 0.25 0"/>
<feBlend mode="normal" in2="BackgroundImageFix" result="effect1_dropShadow_4_20"/>
<feBlend mode="normal" in="SourceGraphic" in2="effect1_dropShadow_4_20" result="shape"/>
</filter>
</defs>
</svg>
