<svg width="61" height="47" viewBox="0 0 61 47" fill="none" xmlns="http://www.w3.org/2000/svg">
<g id="menu">
<path id="Ellipse 11" d="M30.1704 46.0767C38.3255 46.0767 45.7271 43.5516 51.1005 39.4459C56.4744 35.3398 59.8408 29.6318 59.8408 23.2883C59.8408 16.9449 56.4744 11.2369 51.1005 7.1308C45.7271 3.02508 38.3255 0.5 30.1704 0.5C22.0153 0.5 14.6137 3.02508 9.24024 7.1308C3.86633 11.2369 0.5 16.9449 0.5 23.2883C0.5 29.6318 3.86633 35.3398 9.24024 39.4459C14.6137 43.5516 22.0153 46.0767 30.1704 46.0767Z" fill="#121A1F" stroke="#83C033"/>
</g>
<g id="close">
<mask id="mask0_0_1" style="mask-type:alpha" maskUnits="userSpaceOnUse" x="18" y="11" width="24" height="24">
<rect id="Bounding box" x="18" y="11" width="24" height="24" fill="#D9D9D9"/>
</mask>
<g mask="url(#mask0_0_1)">
<path id="close_2" d="M24.4 30L23 28.6L28.6 23L23 17.4L24.4 16L30 21.6L35.6 16L37 17.4L31.4 23L37 28.6L35.6 30L30 24.4L24.4 30Z" fill="#83C033"/>
</g>
</g>
</svg>
