<svg width="61" height="47" viewBox="0 0 61 47" fill="none" xmlns="http://www.w3.org/2000/svg">
<g id="menu">
<path id="Ellipse 11" d="M30.1704 46.0767C38.3255 46.0767 45.7271 43.5516 51.1005 39.4459C56.4744 35.3398 59.8408 29.6318 59.8408 23.2883C59.8408 16.9449 56.4744 11.2369 51.1005 7.1308C45.7271 3.02508 38.3255 0.5 30.1704 0.5C22.0153 0.5 14.6137 3.02508 9.24024 7.1308C3.86633 11.2369 0.5 16.9449 0.5 23.2883C0.5 29.6318 3.86633 35.3398 9.24024 39.4459C14.6137 43.5516 22.0153 46.0767 30.1704 46.0767Z" fill="#121A1F" stroke="#83C033"/>
<g id="apps">
<mask id="mask0_116_13" style="mask-type:alpha" maskUnits="userSpaceOnUse" x="17" y="10" width="25" height="25">
<rect id="Bounding box" x="17.8101" y="10.9059" width="23.7318" height="23.7742" fill="#D9D9D9"/>
</mask>
<g mask="url(#mask0_116_13)">
<path id="apps_2" d="M23.743 30.7177C23.1992 30.7177 22.7336 30.5237 22.3463 30.1357C21.959 29.7477 21.7654 29.2813 21.7654 28.7365C21.7654 28.1917 21.959 27.7253 22.3463 27.3373C22.7336 26.9493 23.1992 26.7553 23.743 26.7553C24.2869 26.7553 24.7525 26.9493 25.1398 27.3373C25.527 27.7253 25.7207 28.1917 25.7207 28.7365C25.7207 29.2813 25.527 29.7477 25.1398 30.1357C24.7525 30.5237 24.2869 30.7177 23.743 30.7177ZM29.676 30.7177C29.1321 30.7177 28.6666 30.5237 28.2793 30.1357C27.892 29.7477 27.6983 29.2813 27.6983 28.7365C27.6983 28.1917 27.892 27.7253 28.2793 27.3373C28.6666 26.9493 29.1321 26.7553 29.676 26.7553C30.2198 26.7553 30.6854 26.9493 31.0727 27.3373C31.46 27.7253 31.6536 28.1917 31.6536 28.7365C31.6536 29.2813 31.46 29.7477 31.0727 30.1357C30.6854 30.5237 30.2198 30.7177 29.676 30.7177ZM35.6089 30.7177C35.0651 30.7177 34.5995 30.5237 34.2122 30.1357C33.8249 29.7477 33.6313 29.2813 33.6313 28.7365C33.6313 28.1917 33.8249 27.7253 34.2122 27.3373C34.5995 26.9493 35.0651 26.7553 35.6089 26.7553C36.1528 26.7553 36.6184 26.9493 37.0057 27.3373C37.393 27.7253 37.5866 28.1917 37.5866 28.7365C37.5866 29.2813 37.393 29.7477 37.0057 30.1357C36.6184 30.5237 36.1528 30.7177 35.6089 30.7177ZM23.743 24.7741C23.1992 24.7741 22.7336 24.5802 22.3463 24.1922C21.959 23.8042 21.7654 23.3378 21.7654 22.793C21.7654 22.2481 21.959 21.7817 22.3463 21.3938C22.7336 21.0058 23.1992 20.8118 23.743 20.8118C24.2869 20.8118 24.7525 21.0058 25.1398 21.3938C25.527 21.7817 25.7207 22.2481 25.7207 22.793C25.7207 23.3378 25.527 23.8042 25.1398 24.1922C24.7525 24.5802 24.2869 24.7741 23.743 24.7741ZM29.676 24.7741C29.1321 24.7741 28.6666 24.5802 28.2793 24.1922C27.892 23.8042 27.6983 23.3378 27.6983 22.793C27.6983 22.2481 27.892 21.7817 28.2793 21.3938C28.6666 21.0058 29.1321 20.8118 29.676 20.8118C30.2198 20.8118 30.6854 21.0058 31.0727 21.3938C31.46 21.7817 31.6536 22.2481 31.6536 22.793C31.6536 23.3378 31.46 23.8042 31.0727 24.1922C30.6854 24.5802 30.2198 24.7741 29.676 24.7741ZM35.6089 24.7741C35.0651 24.7741 34.5995 24.5802 34.2122 24.1922C33.8249 23.8042 33.6313 23.3378 33.6313 22.793C33.6313 22.2481 33.8249 21.7817 34.2122 21.3938C34.5995 21.0058 35.0651 20.8118 35.6089 20.8118C36.1528 20.8118 36.6184 21.0058 37.0057 21.3938C37.393 21.7817 37.5866 22.2481 37.5866 22.793C37.5866 23.3378 37.393 23.8042 37.0057 24.1922C36.6184 24.5802 36.1528 24.7741 35.6089 24.7741ZM23.743 18.8306C23.1992 18.8306 22.7336 18.6366 22.3463 18.2486C21.959 17.8606 21.7654 17.3942 21.7654 16.8494C21.7654 16.3046 21.959 15.8382 22.3463 15.4502C22.7336 15.0622 23.1992 14.8682 23.743 14.8682C24.2869 14.8682 24.7525 15.0622 25.1398 15.4502C25.527 15.8382 25.7207 16.3046 25.7207 16.8494C25.7207 17.3942 25.527 17.8606 25.1398 18.2486C24.7525 18.6366 24.2869 18.8306 23.743 18.8306ZM29.676 18.8306C29.1321 18.8306 28.6666 18.6366 28.2793 18.2486C27.892 17.8606 27.6983 17.3942 27.6983 16.8494C27.6983 16.3046 27.892 15.8382 28.2793 15.4502C28.6666 15.0622 29.1321 14.8682 29.676 14.8682C30.2198 14.8682 30.6854 15.0622 31.0727 15.4502C31.46 15.8382 31.6536 16.3046 31.6536 16.8494C31.6536 17.3942 31.46 17.8606 31.0727 18.2486C30.6854 18.6366 30.2198 18.8306 29.676 18.8306ZM35.6089 18.8306C35.0651 18.8306 34.5995 18.6366 34.2122 18.2486C33.8249 17.8606 33.6313 17.3942 33.6313 16.8494C33.6313 16.3046 33.8249 15.8382 34.2122 15.4502C34.5995 15.0622 35.0651 14.8682 35.6089 14.8682C36.1528 14.8682 36.6184 15.0622 37.0057 15.4502C37.393 15.8382 37.5866 16.3046 37.5866 16.8494C37.5866 17.3942 37.393 17.8606 37.0057 18.2486C36.6184 18.6366 36.1528 18.8306 35.6089 18.8306Z" fill="#83C033"/>
</g>
</g>
</g>
</svg>
